<?xml version="1.0" encoding="UTF-8" standalone="no"?>
<!DOCTYPE svg PUBLIC "-//W3C//DTD SVG 1.1//EN" "http://www.w3.org/Graphics/SVG/1.1/DTD/svg11.dtd">
<svg width="100%" height="100%" viewBox="0 0 235 94" version="1.1" xmlns="http://www.w3.org/2000/svg" xmlns:xlink="http://www.w3.org/1999/xlink" xml:space="preserve" xmlns:serif="http://www.serif.com/" style="fill-rule:evenodd;clip-rule:evenodd;">
    <g transform="matrix(1,0,0,1,0,-98)">
        <g id="Play-Button" serif:id="Play Button" transform="matrix(1,0,0,0.959184,0,101.837)">
            <rect x="0" y="-4" width="235" height="98" style="fill:none;"/>
            <clipPath id="_clip1">
                <rect x="0" y="-4" width="235" height="98"/>
            </clipPath>
            <g clip-path="url(#_clip1)">
                <g id="Background" transform="matrix(1,0,0,1.04255,-0.25,0.170213)">
                    <path d="M6.15,24C6.15,10.745 14.387,0 24.549,0L210.835,0C220.996,0 229.233,10.745 229.233,24L231,42.5L229.233,62C229.233,75.255 220.996,86 210.835,86L24.549,86C14.387,86 6.15,75.255 6.15,62L4.5,42.5L6.15,24Z" style="fill:url(#_Linear2);fill-rule:nonzero;"/>
                    <path d="M8.64,24.222L8.65,24.111L8.65,24C8.65,17.874 10.556,12.42 13.523,8.55C16.488,4.683 20.408,2.5 24.549,2.5L210.835,2.5C214.975,2.5 218.896,4.683 221.86,8.55C224.827,12.42 226.733,17.874 226.733,24L226.733,24.119L226.745,24.238L228.489,42.506L226.744,61.774L226.733,61.887L226.733,62C226.733,68.126 224.827,73.58 221.86,77.45C218.896,81.317 214.975,83.5 210.835,83.5L24.549,83.5C20.408,83.5 16.488,81.317 13.523,77.45C10.556,73.58 8.65,68.126 8.65,62L8.65,61.894L8.641,61.789L7.009,42.506L8.64,24.222Z" style="fill:none;fill-rule:nonzero;stroke:rgb(254,240,199);stroke-width:5px;"/>
                </g>
                <g id="DEAL" transform="matrix(1.16197,0,0,0.823068,31.5141,15.7811)">
                    <path d="M40.793,25.703C40.793,26.719 40.753,27.943 40.675,29.374C40.597,30.806 40.471,32.261 40.299,33.739C40.126,35.216 39.883,36.602 39.569,37.895C39.255,39.188 38.863,40.204 38.392,40.943C38.204,41.266 37.6,41.578 36.58,41.878C35.561,42.178 34.337,42.478 32.909,42.778C31.482,43.079 29.952,43.367 28.321,43.644C26.689,43.921 25.144,44.164 23.685,44.372C22.226,44.579 20.963,44.753 19.896,44.891C18.829,45.03 18.155,45.099 17.872,45.099L17.496,59.507C16.523,59.6 15.566,59.611 14.625,59.542C13.684,59.473 12.727,59.438 11.754,59.438C11.126,59.438 10.499,59.461 9.871,59.507C9.244,59.553 8.616,59.623 7.989,59.715L7.989,46.831C7.989,42.582 7.926,38.287 7.801,33.946C7.706,30.021 7.62,26.119 7.542,22.24C7.463,18.36 7.393,14.458 7.33,10.533C10.562,10.21 13.817,9.805 17.096,9.321C20.375,8.836 23.646,8.593 26.909,8.593C27.473,8.593 28.368,8.674 29.591,8.836C30.815,8.997 32.101,9.251 33.451,9.598C34.8,9.944 36.047,10.371 37.192,10.879C38.338,11.387 39.098,11.964 39.475,12.611C39.726,13.027 39.938,13.835 40.11,15.035C40.283,16.236 40.416,17.518 40.51,18.88C40.604,20.242 40.675,21.57 40.722,22.863C40.769,24.156 40.793,25.103 40.793,25.703ZM27.615,25.218C27.615,24.803 27.599,24.272 27.568,23.625C27.536,22.978 27.481,22.343 27.403,21.72C27.324,21.097 27.207,20.519 27.05,19.988C26.893,19.457 26.689,19.076 26.438,18.845C26.281,18.707 26.03,18.591 25.685,18.499C25.34,18.407 24.979,18.337 24.603,18.291C24.226,18.245 23.865,18.21 23.52,18.187C23.175,18.164 22.924,18.153 22.767,18.153C21.606,18.153 20.445,18.245 19.284,18.43C18.123,18.614 16.947,18.845 15.754,19.122C15.849,20.508 15.903,21.87 15.919,23.209C15.935,24.549 15.943,25.888 15.943,27.227C15.943,29.398 15.99,31.591 16.084,33.808C16.492,33.808 17.198,33.773 18.202,33.704C19.206,33.635 20.257,33.519 21.355,33.358C22.453,33.196 23.489,32.965 24.461,32.665C25.434,32.365 26.093,31.961 26.438,31.453C27.003,30.668 27.34,29.709 27.45,28.578C27.56,27.446 27.615,26.327 27.615,25.218Z" style="fill:rgb(254,240,199);fill-rule:nonzero;"/>
                    <path d="M69.455,58.745C65.721,59.161 62.011,59.553 58.324,59.923C54.637,60.292 50.927,60.639 47.193,60.962C47.037,52.141 46.911,43.379 46.817,34.674C46.723,25.969 46.55,17.183 46.299,8.316C48.401,8.27 50.472,8.178 52.512,8.039C54.551,7.901 56.606,7.716 58.677,7.485C58.332,10.902 58.01,14.331 57.712,17.772C57.414,21.212 57.187,24.664 57.03,28.128C56.904,31.037 56.802,33.935 56.724,36.821C56.646,39.707 56.575,42.605 56.512,45.515C58.583,45.607 60.63,45.653 62.654,45.653C64.678,45.653 66.71,45.699 68.749,45.792L69.455,58.745Z" style="fill:rgb(254,240,199);fill-rule:nonzero;"/>
                    <path d="M104.424,60.269L97.27,61.863C96.768,59.507 96.266,57.164 95.764,54.832C95.262,52.499 94.776,50.156 94.305,47.801L82.727,48.424L81.268,57.637L74.02,57.637C74.459,49.786 74.914,41.982 75.385,34.223C75.856,26.465 76.311,18.684 76.75,10.879C79.009,10.325 81.26,9.863 83.504,9.494C85.747,9.124 88.014,8.94 90.304,8.94C93.097,8.94 95.889,9.009 98.682,9.147C99.184,13.95 99.678,18.741 100.164,23.521C100.651,28.301 101.161,33.092 101.694,37.895C102.071,41.682 102.486,45.422 102.941,49.117C103.396,52.811 103.89,56.529 104.424,60.269ZM92.658,38.38C92.626,37.964 92.548,37.191 92.422,36.059C92.297,34.928 92.156,33.727 91.999,32.457C91.842,31.187 91.661,30.033 91.458,28.993C91.254,27.954 91.057,27.343 90.869,27.158C90.806,27.112 90.657,27.065 90.422,27.019C90.187,26.973 89.936,26.927 89.669,26.881C89.402,26.835 89.144,26.811 88.893,26.811L87.739,26.811C87.473,26.811 87.19,26.823 86.892,26.846C86.594,26.869 86.312,26.927 86.045,27.019C85.778,27.112 85.598,27.227 85.504,27.366C85.441,27.412 85.363,27.712 85.269,28.266C85.174,28.82 85.057,29.501 84.916,30.31C84.774,31.118 84.633,31.984 84.492,32.907C84.351,33.831 84.217,34.708 84.092,35.54C83.966,36.371 83.864,37.087 83.786,37.687C83.708,38.287 83.653,38.634 83.621,38.726L92.658,38.38Z" style="fill:rgb(254,240,199);fill-rule:nonzero;"/>
                    <path d="M141.558,43.229C141.558,44.891 141.385,46.634 141.04,48.459C140.695,50.283 140.193,51.991 139.534,53.585C138.875,55.178 138.067,56.563 137.11,57.741C136.153,58.918 135.078,59.692 133.886,60.061C133.415,60.2 132.859,60.315 132.215,60.408C131.572,60.5 130.905,60.569 130.215,60.616C129.525,60.662 128.842,60.708 128.168,60.754C127.493,60.8 126.921,60.823 126.45,60.823C123.752,61.008 121.053,61.112 118.355,61.135C115.656,61.158 112.942,61.17 110.213,61.17C110.087,59.276 109.97,57.406 109.86,55.559C109.75,53.712 109.601,51.818 109.413,49.879C111.578,49.74 113.735,49.59 115.884,49.428C118.033,49.267 120.19,49.07 122.355,48.84C122.826,48.793 123.351,48.77 123.932,48.77C124.512,48.77 125.109,48.747 125.72,48.701C126.332,48.655 126.928,48.597 127.509,48.528C128.089,48.459 128.599,48.355 129.038,48.216C129.227,48.17 129.454,48.089 129.721,47.974C129.988,47.858 130.231,47.697 130.45,47.489C130.67,47.281 130.858,47.039 131.015,46.761C131.172,46.484 131.25,46.138 131.25,45.722C131.25,44.753 131.18,43.679 131.039,42.501C130.897,41.324 130.796,40.273 130.733,39.349C128.38,39.673 126.018,39.984 123.65,40.285C121.281,40.585 118.904,40.735 116.519,40.735C114.888,40.735 113.586,40.054 112.613,38.691C111.64,37.329 110.934,35.54 110.495,33.323C110.401,32.815 110.315,32.203 110.236,31.487C110.158,30.771 110.095,30.033 110.048,29.271C110.001,28.509 109.962,27.758 109.93,27.019C109.899,26.28 109.868,25.657 109.836,25.149C109.679,22.101 109.562,19.099 109.483,16.144C109.405,13.188 109.334,10.186 109.271,7.139C110.777,7.369 112.291,7.577 113.813,7.762C115.335,7.947 116.849,8.108 118.355,8.247C118.355,10.417 118.394,12.715 118.472,15.139C118.551,17.564 118.747,19.815 119.061,21.893C119.218,23.002 119.516,23.96 119.955,24.768C120.394,25.576 120.92,26.246 121.532,26.777C122.144,27.308 122.802,27.7 123.508,27.954C124.214,28.208 124.928,28.335 125.65,28.335C126.497,28.335 127.344,28.208 128.191,27.954C129.038,27.7 129.854,27.389 130.639,27.019C130.513,23.556 130.411,20.138 130.333,16.767C130.254,13.396 130.105,10.002 129.886,6.584C130.827,6.538 131.768,6.48 132.709,6.411C133.651,6.342 134.592,6.307 135.533,6.307C137.008,6.307 138.498,6.515 140.004,6.931C140.004,8.916 140.028,10.902 140.075,12.888C140.122,14.874 140.177,16.86 140.24,18.845C140.303,19.769 140.357,20.704 140.404,21.651C140.452,22.597 140.491,23.533 140.522,24.456C140.648,27.597 140.852,30.725 141.134,33.842C141.416,36.96 141.558,40.088 141.558,43.229Z" style="fill:rgb(254,240,199);fill-rule:nonzero;"/>
                </g>
            </g>
        </g>
    </g>
    <defs>
        <linearGradient id="_Linear2" x1="0" y1="0" x2="1" y2="0" gradientUnits="userSpaceOnUse" gradientTransform="matrix(5.26598e-15,86,-86,5.26598e-15,117.5,0)"><stop offset="0" style="stop-color:rgb(244,114,93);stop-opacity:1"/><stop offset="1" style="stop-color:rgb(238,81,66);stop-opacity:1"/></linearGradient>
    </defs>
</svg>
