<?xml version="1.0" encoding="UTF-8" standalone="no"?>
<!DOCTYPE svg PUBLIC "-//W3C//DTD SVG 1.1//EN" "http://www.w3.org/Graphics/SVG/1.1/DTD/svg11.dtd">
<svg width="100%" height="100%" viewBox="0 0 236 94" version="1.1" xmlns="http://www.w3.org/2000/svg" xmlns:xlink="http://www.w3.org/1999/xlink" xml:space="preserve" xmlns:serif="http://www.serif.com/" style="fill-rule:evenodd;clip-rule:evenodd;">
    <g transform="matrix(1,0,0,1,-11,-302)">
        <g id="Home-Button" serif:id="Home Button" transform="matrix(1,0,0,0.959184,11.6375,305.837)">
            <rect x="0" y="-4" width="235" height="98" style="fill:none;"/>
            <clipPath id="_clip1">
                <rect x="0" y="-4" width="235" height="98"/>
            </clipPath>
            <g clip-path="url(#_clip1)">
                <g id="Background" transform="matrix(1.03251,0,0,1.04255,-5.71503,0.170213)">
                    <path d="M6.15,24C6.15,10.745 14.387,0 24.549,0L210.835,0C220.996,0 229.233,10.745 229.233,24L231,42.5L229.233,62C229.233,75.255 220.996,86 210.835,86L24.549,86C14.387,86 6.15,75.255 6.15,62L4.5,42.5L6.15,24Z" style="fill:url(#_Linear2);fill-rule:nonzero;"/>
                    <path d="M8.64,24.222L8.65,24.111L8.65,24C8.65,17.874 10.556,12.42 13.523,8.55C16.488,4.683 20.408,2.5 24.549,2.5L210.835,2.5C214.975,2.5 218.896,4.683 221.86,8.55C224.827,12.42 226.733,17.874 226.733,24L226.733,24.119L226.745,24.238L228.489,42.506L226.744,61.774L226.733,61.887L226.733,62C226.733,68.126 224.827,73.58 221.86,77.45C218.896,81.317 214.975,83.5 210.835,83.5L24.549,83.5C20.408,83.5 16.488,81.317 13.523,77.45C10.556,73.58 8.65,68.126 8.65,62L8.65,61.894L8.641,61.789L7.009,42.506L8.64,24.222Z" style="fill:none;fill-rule:nonzero;stroke:rgb(254,240,199);stroke-width:5px;"/>
                </g>
                <g transform="matrix(1.05056,0,0,0.938298,4.03933,-183.006)">
                    <path d="M55.179,264.727L44.82,265.031C44.75,262.398 44.698,259.785 44.663,257.193C44.629,254.6 44.577,251.987 44.507,249.354L34.721,249.901C34.686,250.306 34.669,250.701 34.669,251.086L34.669,252.21C34.669,254.479 34.747,256.737 34.903,258.985C35.059,261.234 35.224,263.472 35.397,265.7C34.703,265.74 34.001,265.771 33.289,265.791C32.578,265.811 31.875,265.821 31.181,265.821C29.828,265.821 28.465,265.791 27.095,265.73C25.724,265.669 24.362,265.639 23.008,265.639C23.078,261.872 23.164,258.145 23.269,254.458C23.373,250.772 23.459,247.045 23.529,243.278C23.598,239.591 23.642,235.946 23.659,232.34C23.676,228.735 23.702,225.109 23.737,221.464L32.43,221.464C32.708,224.502 32.899,227.53 33.003,230.548C33.107,233.566 33.263,236.594 33.471,239.632C35.137,239.591 36.786,239.571 38.417,239.571C40.048,239.571 41.714,239.551 43.414,239.51L43.935,219.823C44.42,219.782 44.898,219.762 45.366,219.762L46.798,219.762C48.186,219.762 49.548,219.803 50.884,219.884C52.22,219.965 53.565,220.147 54.918,220.431C55.092,227.844 55.161,235.227 55.127,242.579C55.092,249.931 55.109,257.314 55.179,264.727Z" style="fill:rgb(254,240,199);fill-rule:nonzero;"/>
                    <path d="M106.037,238.964L106.037,240.513C106.037,241.019 106.019,241.516 105.985,242.002C105.95,242.407 105.907,243.116 105.855,244.128C105.803,245.141 105.733,246.306 105.646,247.622C105.56,248.939 105.455,250.326 105.334,251.785C105.213,253.243 105.074,254.59 104.918,255.826C104.761,257.061 104.597,258.124 104.423,259.016C104.25,259.907 104.076,260.454 103.902,260.656C102.861,261.872 101.621,262.773 100.181,263.36C98.74,263.948 97.239,264.343 95.678,264.545C94.116,264.748 92.554,264.829 90.993,264.788C89.431,264.748 87.974,264.727 86.62,264.727C86.169,264.727 85.405,264.717 84.33,264.697C83.254,264.677 82.031,264.646 80.66,264.606C79.289,264.565 77.857,264.495 76.365,264.393C74.873,264.292 73.476,264.15 72.175,263.968C70.873,263.786 69.745,263.563 68.791,263.299C67.837,263.036 67.238,262.702 66.995,262.297C66.718,261.851 66.475,261.365 66.266,260.839C66.058,260.312 65.867,259.806 65.694,259.319C65.243,257.983 64.826,256.555 64.444,255.036C64.063,253.516 63.742,251.957 63.481,250.357C63.221,248.757 63.013,247.167 62.857,245.587C62.701,244.007 62.622,242.508 62.622,241.09C62.622,240.321 62.675,239.318 62.779,238.082C62.883,236.847 63.022,235.51 63.195,234.072C63.369,232.634 63.577,231.166 63.82,229.667C64.063,228.168 64.332,226.77 64.627,225.474C64.922,224.178 65.243,223.054 65.59,222.102C65.937,221.15 66.318,220.512 66.735,220.188C67.082,219.904 67.724,219.641 68.661,219.398C69.598,219.155 70.691,218.942 71.94,218.76C73.19,218.577 74.526,218.415 75.949,218.273C77.372,218.132 78.725,218.01 80.009,217.909C81.293,217.808 82.456,217.737 83.497,217.696C84.538,217.656 85.301,217.635 85.787,217.635C86.447,217.635 87.34,217.676 88.468,217.757C89.596,217.838 90.819,217.97 92.138,218.152C93.457,218.334 94.793,218.557 96.146,218.82C97.5,219.084 98.758,219.398 99.92,219.762C101.083,220.127 102.081,220.532 102.913,220.977C103.746,221.423 104.267,221.909 104.475,222.436C104.649,222.881 104.813,223.519 104.97,224.35C105.126,225.18 105.256,226.122 105.36,227.175C105.464,228.229 105.56,229.343 105.646,230.517C105.733,231.692 105.803,232.816 105.855,233.89C105.907,234.963 105.95,235.946 105.985,236.837C106.019,237.728 106.037,238.437 106.037,238.964ZM96.719,240.969C96.719,240.159 96.684,239.298 96.615,238.386C96.545,237.475 96.32,236.675 95.938,235.986C95.66,235.5 94.992,235.115 93.934,234.832C92.875,234.548 91.713,234.345 90.446,234.224C89.179,234.102 87.956,234.032 86.776,234.011C85.596,233.991 84.763,233.981 84.278,233.981C83.896,233.981 83.228,234.021 82.273,234.102C81.319,234.183 80.313,234.315 79.254,234.497C78.196,234.68 77.215,234.902 76.313,235.166C75.411,235.429 74.856,235.743 74.647,236.108C74.439,236.391 74.274,236.928 74.153,237.718C74.031,238.508 73.927,239.359 73.84,240.27C73.754,241.181 73.693,242.052 73.658,242.883C73.624,243.713 73.606,244.311 73.606,244.675C73.606,244.999 73.615,245.486 73.632,246.134C73.65,246.782 73.693,247.45 73.762,248.139C73.832,248.828 73.91,249.476 73.997,250.083C74.083,250.691 74.214,251.137 74.387,251.42C74.491,251.623 74.803,251.805 75.324,251.967C75.845,252.129 76.478,252.281 77.224,252.423C77.97,252.565 78.76,252.676 79.593,252.757C80.425,252.838 81.232,252.909 82.013,252.97C82.794,253.03 83.488,253.071 84.095,253.091C84.703,253.111 85.128,253.122 85.371,253.122C85.787,253.122 86.507,253.081 87.531,253C88.555,252.919 89.631,252.787 90.758,252.605C91.886,252.423 92.927,252.2 93.882,251.937C94.836,251.673 95.452,251.359 95.73,250.995C95.938,250.711 96.112,250.114 96.25,249.202C96.389,248.291 96.493,247.298 96.563,246.225C96.632,245.151 96.675,244.118 96.693,243.126C96.71,242.133 96.719,241.414 96.719,240.969Z" style="fill:rgb(254,240,199);fill-rule:nonzero;"/>
                    <path d="M157.155,265.943C156.496,265.902 155.854,265.841 155.229,265.76C154.709,265.679 154.197,265.619 153.694,265.578C153.19,265.538 152.817,265.517 152.574,265.517C151.221,265.517 149.867,265.548 148.514,265.609C147.161,265.669 145.825,265.781 144.506,265.943C144.54,264.241 144.566,262.57 144.584,260.93C144.601,259.289 144.61,257.618 144.61,255.917C144.61,252.878 144.566,249.861 144.48,246.863C144.393,243.865 144.315,240.867 144.245,237.87L133.314,266.733C131.717,261.669 130.008,256.696 128.186,251.815C126.364,246.934 124.464,242.063 122.486,237.201L123.319,267.219C122.937,267.219 122.547,267.209 122.148,267.188C121.749,267.168 121.341,267.158 120.925,267.158C119.606,267.158 118.313,267.219 117.046,267.34C115.78,267.462 114.504,267.583 113.22,267.705C113.394,263.938 113.567,260.19 113.741,256.464C113.914,252.737 114.001,248.99 114.001,245.222C114.001,240.807 113.975,236.411 113.923,232.036C113.871,227.661 113.828,223.266 113.793,218.851C116.292,218.851 118.73,218.77 121.107,218.608C123.484,218.446 125.922,218.223 128.421,217.939C129.254,221.18 130.112,224.39 130.997,227.57C131.882,230.75 132.828,233.92 133.834,237.08C134.91,234.082 136.134,231.145 137.504,228.269C138.875,225.393 140.272,222.537 141.695,219.701C144.055,219.62 146.388,219.539 148.696,219.458C151.004,219.377 153.338,219.317 155.698,219.276C155.802,222.922 155.932,226.527 156.088,230.092C156.244,233.657 156.392,237.262 156.531,240.908C156.635,243.784 156.73,246.66 156.817,249.536C156.904,252.413 156.982,255.269 157.051,258.104L157.155,263.208L157.155,265.943Z" style="fill:rgb(254,240,199);fill-rule:nonzero;"/>
                    <path d="M194.271,227.905C190.87,228.107 187.495,228.32 184.146,228.543C180.797,228.765 177.422,229.039 174.021,229.363L173.917,234.163L187.347,233.252C187.521,234.629 187.651,235.986 187.738,237.323C187.825,238.66 187.868,240.017 187.868,241.394C187.868,241.961 187.859,242.549 187.842,243.156C187.825,243.764 187.816,244.351 187.816,244.918L175.323,247.531L176.103,255.066C178.741,254.863 181.37,254.57 183.99,254.185C186.61,253.8 189.256,253.466 191.928,253.182C192.171,255.208 192.414,257.243 192.657,259.289C192.9,261.335 193.247,263.33 193.698,265.274C188.77,265.234 183.877,265.244 179.019,265.305C174.16,265.365 169.267,265.396 164.339,265.396C164.443,260.656 164.564,255.937 164.703,251.238C164.842,246.539 164.912,241.799 164.912,237.019L164.912,235.865C164.912,233.11 164.877,230.365 164.807,227.631C164.738,224.897 164.669,222.132 164.599,219.337C167.341,219.377 170.074,219.387 172.798,219.367C175.522,219.347 178.272,219.337 181.049,219.337C183.166,219.337 185.274,219.387 187.373,219.489C189.473,219.59 191.581,219.701 193.698,219.823L194.271,227.905Z" style="fill:rgb(254,240,199);fill-rule:nonzero;"/>
                </g>
            </g>
        </g>
    </g>
    <defs>
        <linearGradient id="_Linear2" x1="0" y1="0" x2="1" y2="0" gradientUnits="userSpaceOnUse" gradientTransform="matrix(5.26598e-15,86,-86,5.26598e-15,117.5,0)"><stop offset="0" style="stop-color:rgb(244,114,93);stop-opacity:1"/><stop offset="1" style="stop-color:rgb(238,81,66);stop-opacity:1"/></linearGradient>
    </defs>
</svg>
