<?xml version="1.0" encoding="UTF-8" standalone="no"?>
<!DOCTYPE svg PUBLIC "-//W3C//DTD SVG 1.1//EN" "http://www.w3.org/Graphics/SVG/1.1/DTD/svg11.dtd">
<svg width="100%" height="100%" viewBox="0 0 257 94" version="1.1" xmlns="http://www.w3.org/2000/svg" xmlns:xlink="http://www.w3.org/1999/xlink" xml:space="preserve" xmlns:serif="http://www.serif.com/" style="fill-rule:evenodd;clip-rule:evenodd;">
    <g transform="matrix(1,0,0,1,0,-199)">
        <g id="Reset-Buttoin" serif:id="Reset Buttoin" transform="matrix(1.09362,0,0,0.959184,0,202.837)">
            <rect x="0" y="-4" width="235" height="98" style="fill:none;"/>
            <clipPath id="_clip1">
                <rect x="0" y="-4" width="235" height="98"/>
            </clipPath>
            <g clip-path="url(#_clip1)">
                <g id="Background" transform="matrix(0.987064,0,0,1.04255,1.27319,0.170213)">
                    <path d="M6.15,24C6.15,10.745 14.387,0 24.549,0L210.835,0C220.996,0 229.233,10.745 229.233,24L231,42.5L229.233,62C229.233,75.255 220.996,86 210.835,86L24.549,86C14.387,86 6.15,75.255 6.15,62L4.5,42.5L6.15,24Z" style="fill:url(#_Linear2);fill-rule:nonzero;"/>
                    <path d="M8.64,24.222L8.65,24.111L8.65,24C8.65,17.874 10.556,12.42 13.523,8.55C16.488,4.683 20.408,2.5 24.549,2.5L210.835,2.5C214.975,2.5 218.896,4.683 221.86,8.55C224.827,12.42 226.733,17.874 226.733,24L226.733,24.119L226.745,24.238L228.489,42.506L226.744,61.774L226.733,61.887L226.733,62C226.733,68.126 224.827,73.58 221.86,77.45C218.896,81.317 214.975,83.5 210.835,83.5L24.549,83.5C20.408,83.5 16.488,81.317 13.523,77.45C10.556,73.58 8.65,68.126 8.65,62L8.65,61.894L8.641,61.789L7.009,42.506L8.64,24.222Z" style="fill:none;fill-rule:nonzero;stroke:rgb(254,240,199);stroke-width:5px;"/>
                </g>
                <g transform="matrix(1.05823,0,0,0.938298,4.708,-183.006)">
                    <path d="M56.473,234.345C56.473,237.667 55.685,240.28 54.11,242.184C52.535,244.088 50.456,245.121 47.872,245.283C50.991,251.967 53.716,258.813 56.047,265.821L42.249,266.247C41.997,262.965 41.619,259.947 41.115,257.193C40.611,254.438 39.902,251.542 38.989,248.503C37.949,248.584 36.917,248.686 35.893,248.807C34.87,248.929 33.854,249.03 32.845,249.111L33.082,262.905C31.286,263.026 29.49,263.087 27.695,263.087C26.781,263.087 25.891,263.067 25.025,263.026C24.159,262.986 23.284,262.905 22.402,262.783C22.623,259.056 22.828,255.339 23.017,251.633C23.206,247.926 23.316,244.23 23.347,240.543C23.442,233.981 23.584,227.418 23.773,220.856C26.734,220.653 29.687,220.431 32.633,220.188C35.578,219.944 38.532,219.823 41.493,219.823C42.249,219.823 43.068,219.843 43.95,219.884C44.832,219.924 45.722,220.036 46.62,220.218C47.518,220.4 48.384,220.653 49.219,220.977C50.054,221.302 50.802,221.727 51.464,222.253C53.07,223.55 54.307,225.282 55.173,227.449C56.039,229.616 56.473,231.915 56.473,234.345ZM45.51,233.373C45.51,233.049 45.502,232.604 45.486,232.036C45.47,231.469 45.431,230.892 45.368,230.305C45.305,229.717 45.21,229.17 45.084,228.664C44.958,228.158 44.785,227.783 44.565,227.54C44.407,227.378 44.139,227.256 43.761,227.175C43.383,227.094 42.982,227.023 42.556,226.963C42.131,226.902 41.721,226.861 41.328,226.841C40.934,226.821 40.658,226.811 40.501,226.811C39.241,226.811 38.004,226.892 36.791,227.054C35.578,227.216 34.373,227.418 33.176,227.661L34.452,239.45C35.145,239.652 35.87,239.794 36.626,239.875C37.382,239.956 38.122,239.997 38.847,239.997C39.162,239.997 39.626,239.976 40.241,239.936C40.855,239.895 41.485,239.814 42.131,239.693C42.777,239.571 43.375,239.399 43.927,239.176C44.478,238.953 44.864,238.66 45.084,238.295C45.179,238.133 45.258,237.819 45.321,237.353C45.384,236.887 45.423,236.401 45.439,235.895C45.455,235.389 45.47,234.892 45.486,234.406C45.502,233.92 45.51,233.576 45.51,233.373Z" style="fill:rgb(254,240,199);fill-rule:nonzero;"/>
                    <path d="M88.7,227.905C85.613,228.107 82.549,228.32 79.509,228.543C76.469,228.765 73.405,229.039 70.318,229.363L70.224,234.163L82.415,233.252C82.573,234.629 82.691,235.986 82.77,237.323C82.848,238.66 82.888,240.017 82.888,241.394C82.888,241.961 82.88,242.549 82.864,243.156C82.848,243.764 82.84,244.351 82.84,244.918L71.499,247.531L72.208,255.066C74.602,254.863 76.989,254.57 79.367,254.185C81.746,253.8 84.148,253.466 86.574,253.182C86.794,255.208 87.015,257.243 87.235,259.289C87.456,261.335 87.771,263.33 88.18,265.274C83.707,265.234 79.265,265.244 74.855,265.305C70.444,265.365 66.002,265.396 61.529,265.396C61.623,260.656 61.734,255.937 61.86,251.238C61.986,246.539 62.049,241.799 62.049,237.019L62.049,235.865C62.049,233.11 62.017,230.365 61.954,227.631C61.891,224.897 61.828,222.132 61.765,219.337C64.254,219.377 66.735,219.387 69.208,219.367C71.681,219.347 74.177,219.337 76.697,219.337C78.619,219.337 80.533,219.387 82.439,219.489C84.345,219.59 86.259,219.701 88.18,219.823L88.7,227.905Z" style="fill:rgb(254,240,199);fill-rule:nonzero;"/>
                    <path d="M128.583,254.215C128.583,256.16 128.22,257.729 127.496,258.924C126.771,260.12 125.747,261.082 124.424,261.811C123.322,262.418 121.936,262.894 120.266,263.239C118.596,263.583 116.864,263.826 115.068,263.968C113.272,264.11 111.508,264.201 109.775,264.241C108.043,264.282 106.594,264.302 105.428,264.302C103.443,264.302 101.482,264.262 99.545,264.181C97.607,264.1 95.646,263.978 93.662,263.816C93.756,259.684 93.662,255.593 93.378,251.542C95.741,251.623 98.096,251.694 100.443,251.754C102.79,251.815 105.144,251.886 107.507,251.967C108.421,252.008 109.342,252.048 110.272,252.089C111.201,252.129 112.138,252.149 113.083,252.149L113.792,252.149C114.107,252.149 114.438,252.129 114.784,252.089C115.131,252.048 115.454,251.987 115.753,251.906C116.052,251.825 116.281,251.704 116.438,251.542C116.564,251.38 116.643,251.147 116.675,250.843C116.706,250.539 116.722,250.266 116.722,250.023C116.722,249.577 116.675,249.04 116.58,248.412C116.486,247.784 116.344,247.268 116.155,246.863C116.123,246.822 116.021,246.782 115.848,246.741C115.674,246.701 115.477,246.67 115.257,246.65C115.036,246.63 114.832,246.61 114.643,246.589C114.454,246.569 114.343,246.559 114.312,246.559C112.296,246.356 110.287,246.215 108.287,246.134C106.286,246.053 104.278,245.911 102.262,245.708C101.348,245.587 100.411,245.465 99.45,245.344C98.49,245.222 97.6,244.999 96.78,244.675C95.993,244.392 95.323,243.754 94.772,242.761C94.221,241.769 93.78,240.635 93.449,239.359C93.118,238.082 92.882,236.796 92.74,235.5C92.598,234.204 92.528,233.11 92.528,232.219C92.528,230.76 92.638,229.373 92.858,228.056C93.079,226.74 93.433,225.514 93.922,224.38C94.41,223.246 95.032,222.243 95.788,221.372C96.544,220.501 97.474,219.782 98.576,219.215C100.466,218.284 102.49,217.635 104.648,217.271C106.806,216.906 108.878,216.724 110.862,216.724C113.193,216.724 115.493,216.906 117.761,217.271C120.03,217.635 122.298,218.101 124.566,218.668C124.534,219.843 124.511,221.008 124.495,222.162C124.479,223.317 124.471,224.481 124.471,225.656C124.471,226.831 124.519,228.016 124.613,229.211C124.708,230.406 124.802,231.591 124.897,232.766C121.904,232.847 118.919,232.918 115.942,232.978C112.965,233.039 109.964,233.15 106.94,233.313C106.562,233.313 106.05,233.333 105.404,233.373C104.759,233.414 104.136,233.464 103.538,233.525C102.939,233.586 102.419,233.637 101.978,233.677C101.537,233.718 101.317,233.738 101.317,233.738C101.159,234.183 101.065,234.639 101.033,235.105C101.002,235.571 100.986,236.047 100.986,236.533C100.986,236.776 100.994,237.08 101.01,237.444C101.025,237.809 101.096,238.093 101.222,238.295C101.254,238.336 101.522,238.396 102.026,238.477C102.53,238.558 103.089,238.639 103.703,238.72C104.318,238.802 104.9,238.883 105.452,238.964C106.003,239.045 106.342,239.085 106.468,239.085C107.507,239.207 108.728,239.348 110.13,239.51C111.532,239.672 112.965,239.855 114.43,240.057C115.895,240.26 117.305,240.513 118.659,240.817C120.014,241.121 121.195,241.475 122.203,241.88C123.117,242.285 123.96,242.923 124.731,243.794C125.503,244.665 126.173,245.678 126.74,246.832C127.307,247.987 127.756,249.202 128.086,250.478C128.417,251.754 128.583,253 128.583,254.215Z" style="fill:rgb(254,240,199);fill-rule:nonzero;"/>
                    <path d="M160.101,227.905C157.014,228.107 153.95,228.32 150.91,228.543C147.87,228.765 144.807,229.039 141.719,229.363L141.625,234.163L153.816,233.252C153.974,234.629 154.092,235.986 154.171,237.323C154.25,238.66 154.289,240.017 154.289,241.394C154.289,241.961 154.281,242.549 154.265,243.156C154.25,243.764 154.242,244.351 154.242,244.918L142.901,247.531L143.609,255.066C146.004,254.863 148.39,254.57 150.768,254.185C153.147,253.8 155.549,253.466 157.975,253.182C158.195,255.208 158.416,257.243 158.636,259.289C158.857,261.335 159.172,263.33 159.581,265.274C155.108,265.234 150.666,265.244 146.256,265.305C141.845,265.365 137.403,265.396 132.93,265.396C133.024,260.656 133.135,255.937 133.261,251.238C133.387,246.539 133.45,241.799 133.45,237.019L133.45,235.865C133.45,233.11 133.418,230.365 133.355,227.631C133.292,224.897 133.229,222.132 133.166,219.337C135.655,219.377 138.136,219.387 140.609,219.367C143.082,219.347 145.578,219.337 148.099,219.337C150.02,219.337 151.934,219.387 153.84,219.489C155.746,219.59 157.66,219.701 159.581,219.823L160.101,227.905Z" style="fill:rgb(254,240,199);fill-rule:nonzero;"/>
                    <path d="M191.478,229.545L191.478,233.799L182.358,234.406C182.232,236.756 182.137,239.085 182.074,241.394C182.011,243.703 181.98,246.012 181.98,248.321C181.98,251.157 181.925,253.982 181.815,256.798C181.704,259.613 181.57,262.418 181.413,265.214C180.279,265.295 179.145,265.365 178.011,265.426C176.876,265.487 175.742,265.517 174.608,265.517C174.199,265.517 173.797,265.507 173.403,265.487C173.009,265.467 172.624,265.457 172.246,265.457C172.309,262.986 172.364,260.525 172.411,258.074C172.458,255.623 172.482,253.182 172.482,250.752C172.482,248.321 172.435,245.88 172.34,243.43C172.246,240.979 172.135,238.518 172.009,236.047C171.096,236.087 170.174,236.128 169.245,236.168C168.316,236.209 167.378,236.229 166.433,236.229L164.85,236.229C164.33,236.229 163.803,236.209 163.267,236.168C163.173,233.171 163.11,230.193 163.078,227.236C163.047,224.279 163.015,221.322 162.984,218.365C167.709,218.486 172.403,218.658 177.065,218.881C181.728,219.104 186.406,219.296 191.1,219.458C191.226,221.2 191.32,222.891 191.383,224.532C191.447,226.173 191.478,227.844 191.478,229.545Z" style="fill:rgb(254,240,199);fill-rule:nonzero;"/>
                </g>
            </g>
        </g>
    </g>
    <defs>
        <linearGradient id="_Linear2" x1="0" y1="0" x2="1" y2="0" gradientUnits="userSpaceOnUse" gradientTransform="matrix(5.26598e-15,86,-86,5.26598e-15,117.5,0)"><stop offset="0" style="stop-color:rgb(244,114,93);stop-opacity:1"/><stop offset="1" style="stop-color:rgb(238,81,66);stop-opacity:1"/></linearGradient>
    </defs>
</svg>
