<?xml version="1.0" encoding="UTF-8" standalone="no"?>
<!DOCTYPE svg PUBLIC "-//W3C//DTD SVG 1.1//EN" "http://www.w3.org/Graphics/SVG/1.1/DTD/svg11.dtd">
<svg width="100%" height="100%" viewBox="0 0 235 94" version="1.1" xmlns="http://www.w3.org/2000/svg" xmlns:xlink="http://www.w3.org/1999/xlink" xml:space="preserve" xmlns:serif="http://www.serif.com/" style="fill-rule:evenodd;clip-rule:evenodd;">
    <g id="Deal-Button" serif:id="Deal Button" transform="matrix(1,0,0,0.959184,0.000795,3.83673)">
        <rect x="0" y="-4" width="235" height="98" style="fill:none;"/>
        <clipPath id="_clip1">
            <rect x="0" y="-4" width="235" height="98"/>
        </clipPath>
        <g clip-path="url(#_clip1)">
            <g id="Background" transform="matrix(1,0,0,1.04255,-0.25,0.170213)">
                <path d="M6.15,24C6.15,10.745 14.387,0 24.549,0L210.835,0C220.996,0 229.233,10.745 229.233,24L231,42.5L229.233,62C229.233,75.255 220.996,86 210.835,86L24.549,86C14.387,86 6.15,75.255 6.15,62L4.5,42.5L6.15,24Z" style="fill:url(#_Linear2);fill-rule:nonzero;"/>
                <path d="M8.64,24.222L8.65,24.111L8.65,24C8.65,17.874 10.556,12.42 13.523,8.55C16.488,4.683 20.408,2.5 24.549,2.5L210.835,2.5C214.975,2.5 218.896,4.683 221.86,8.55C224.827,12.42 226.733,17.874 226.733,24L226.733,24.119L226.745,24.238L228.489,42.506L226.744,61.774L226.733,61.887L226.733,62C226.733,68.126 224.827,73.58 221.86,77.45C218.896,81.317 214.975,83.5 210.835,83.5L24.549,83.5C20.408,83.5 16.488,81.317 13.523,77.45C10.556,73.58 8.65,68.126 8.65,62L8.65,61.894L8.641,61.789L7.009,42.506L8.64,24.222Z" style="fill:none;fill-rule:nonzero;stroke:rgb(254,240,199);stroke-width:5px;"/>
            </g>
            <g id="DEAL" transform="matrix(1.09155,0,0,0.823068,36.9754,15.7811)">
                <path d="M42.479,35.609L42.479,39.834C42.479,41.312 42.363,42.721 42.129,44.06C41.962,45.076 41.778,45.965 41.578,46.727C41.377,47.489 41.127,48.182 40.826,48.805C40.526,49.428 40.158,50.006 39.724,50.537C39.29,51.068 38.755,51.587 38.121,52.095C37.92,52.28 37.386,52.522 36.517,52.823C35.649,53.123 34.572,53.481 33.286,53.896C32,54.312 30.564,54.751 28.977,55.213C27.391,55.674 25.771,56.125 24.117,56.563C22.464,57.002 20.828,57.441 19.208,57.879C17.588,58.318 16.118,58.711 14.799,59.057C13.479,59.403 12.361,59.704 11.442,59.958C10.523,60.212 9.914,60.362 9.613,60.408C9.045,51.957 8.511,43.575 8.01,35.263C7.509,26.95 7.125,18.545 6.858,10.048C9.663,10.186 12.452,10.337 15.225,10.498C17.997,10.66 20.802,10.879 23.642,11.156C24.376,11.249 25.454,11.364 26.873,11.503C28.293,11.641 29.771,11.837 31.307,12.091C32.843,12.345 34.288,12.657 35.641,13.027C36.993,13.396 37.97,13.858 38.572,14.412C39.34,15.197 40.024,16.259 40.626,17.598C41.227,18.938 41.661,20.254 41.928,21.547C42.062,22.147 42.162,23.082 42.229,24.352C42.296,25.622 42.346,26.973 42.379,28.405C42.413,29.836 42.438,31.222 42.454,32.561C42.471,33.9 42.479,34.916 42.479,35.609ZM30.004,36.509C30.004,36.001 29.996,35.459 29.979,34.882C29.963,34.304 29.938,33.762 29.904,33.254C29.837,32.515 29.745,31.741 29.629,30.933C29.512,30.125 29.353,29.34 29.153,28.578C28.952,27.816 28.702,27.1 28.401,26.43C28.101,25.761 27.733,25.172 27.299,24.664C27.065,24.387 26.497,24.168 25.595,24.006C24.694,23.844 23.708,23.729 22.64,23.66C21.571,23.59 20.569,23.544 19.633,23.521C18.698,23.498 18.097,23.486 17.83,23.486L15.776,23.486C16.043,27.089 16.285,30.633 16.502,34.12C16.719,37.606 16.911,41.151 17.078,44.753C17.713,44.706 18.623,44.579 19.809,44.372C20.995,44.164 22.205,43.887 23.441,43.54C24.677,43.194 25.829,42.755 26.898,42.224C27.967,41.693 28.735,41.058 29.203,40.319C29.57,39.765 29.796,39.176 29.879,38.553C29.963,37.929 30.004,37.248 30.004,36.509Z" style="fill:rgb(254,240,199);fill-rule:nonzero;"/>
                <path d="M77.199,18.291C73.926,18.522 70.678,18.764 67.455,19.018C64.232,19.272 60.983,19.584 57.71,19.954L57.61,25.426L70.536,24.387C70.703,25.957 70.828,27.504 70.912,29.028C70.995,30.552 71.037,32.099 71.037,33.669C71.037,34.316 71.029,34.985 71.012,35.678C70.995,36.371 70.987,37.04 70.987,37.687L58.963,40.666L59.714,49.255C62.253,49.024 64.783,48.689 67.304,48.251C69.826,47.812 72.373,47.431 74.945,47.108C75.179,49.417 75.412,51.737 75.646,54.07C75.88,56.402 76.214,58.676 76.648,60.893C71.905,60.847 67.196,60.858 62.52,60.927C57.844,60.997 53.134,61.031 48.391,61.031C48.492,55.628 48.608,50.248 48.742,44.891C48.876,39.534 48.942,34.131 48.942,28.682L48.942,27.366C48.942,24.225 48.909,21.097 48.842,17.979C48.775,14.862 48.709,11.71 48.642,8.524C51.28,8.57 53.911,8.582 56.533,8.559C59.155,8.536 61.802,8.524 64.474,8.524C66.511,8.524 68.54,8.582 70.561,8.697C72.582,8.813 74.611,8.94 76.648,9.078L77.199,18.291Z" style="fill:rgb(254,240,199);fill-rule:nonzero;"/>
                <path d="M114.424,60.269L106.809,61.863C106.274,59.507 105.74,57.164 105.206,54.832C104.671,52.499 104.154,50.156 103.653,47.801L91.328,48.424L89.775,57.637L82.059,57.637C82.527,49.786 83.011,41.982 83.512,34.223C84.013,26.465 84.497,18.684 84.965,10.879C87.37,10.325 89.766,9.863 92.154,9.494C94.543,9.124 96.956,8.94 99.394,8.94C102.367,8.94 105.339,9.009 108.312,9.147C108.846,13.95 109.372,18.741 109.89,23.521C110.408,28.301 110.951,33.092 111.518,37.895C111.919,41.682 112.362,45.422 112.846,49.117C113.33,52.811 113.856,56.529 114.424,60.269ZM101.899,38.38C101.866,37.964 101.782,37.191 101.648,36.059C101.515,34.928 101.365,33.727 101.198,32.457C101.031,31.187 100.839,30.033 100.621,28.993C100.404,27.954 100.196,27.343 99.995,27.158C99.928,27.112 99.77,27.065 99.519,27.019C99.269,26.973 99.001,26.927 98.718,26.881C98.434,26.835 98.158,26.811 97.891,26.811L96.663,26.811C96.38,26.811 96.079,26.823 95.762,26.846C95.444,26.869 95.144,26.927 94.86,27.019C94.576,27.112 94.384,27.227 94.284,27.366C94.217,27.412 94.133,27.712 94.033,28.266C93.933,28.82 93.808,29.501 93.657,30.31C93.507,31.118 93.357,31.984 93.207,32.907C93.056,33.831 92.914,34.708 92.781,35.54C92.647,36.371 92.538,37.087 92.455,37.687C92.371,38.287 92.313,38.634 92.28,38.726L101.899,38.38Z" style="fill:rgb(254,240,199);fill-rule:nonzero;"/>
                <path d="M143.683,58.745C139.708,59.161 135.759,59.553 131.834,59.923C127.91,60.292 123.96,60.639 119.985,60.962C119.818,52.141 119.685,43.379 119.585,34.674C119.484,25.969 119.301,17.183 119.033,8.316C121.271,8.27 123.476,8.178 125.647,8.039C127.818,7.901 130.006,7.716 132.21,7.485C131.843,10.902 131.5,14.331 131.183,17.772C130.866,21.212 130.623,24.664 130.456,28.128C130.323,31.037 130.214,33.935 130.131,36.821C130.047,39.707 129.972,42.605 129.905,45.515C132.11,45.607 134.289,45.653 136.443,45.653C138.598,45.653 140.761,45.699 142.932,45.792L143.683,58.745Z" style="fill:rgb(254,240,199);fill-rule:nonzero;"/>
            </g>
        </g>
    </g>
    <defs>
        <linearGradient id="_Linear2" x1="0" y1="0" x2="1" y2="0" gradientUnits="userSpaceOnUse" gradientTransform="matrix(5.26598e-15,86,-86,5.26598e-15,117.5,0)"><stop offset="0" style="stop-color:rgb(244,114,93);stop-opacity:1"/><stop offset="1" style="stop-color:rgb(238,81,66);stop-opacity:1"/></linearGradient>
    </defs>
</svg>
